<svg xmlns="http://www.w3.org/2000/svg" transform="scale(1 -1)" viewBox="0 0 512 512"><defs fill="#790786000"><style>.cls-1{fill:#cc4ee7}.cls-3{fill:none;stroke:#790786;stroke-linecap:round;stroke-linejoin:round;stroke-width:3px}</style></defs><g id="Set_v_2" data-name="Set v 2"><path fill="#790786000" d="M445.85 271.82a106 106 0 0 1-1.4 12.67c-.74.71-.22 1.65-.46 2.45a32 32 0 0 0-1.33 4.94c-.2.43-.42.85-.59 1.29A68.7 68.7 0 0 1 415 327.89c-17.55 11.66-36.9 14.69-57.41 11.16-15.22-2.62-29-8.85-41.89-17.24a170.6 170.6 0 0 1-29.94-25.26c-2.93-3-5.78-6.15-8.47-9.4l-7.61-9.15a5.8 5.8 0 0 0-1.35-1.93c-7-9.19-13-19.09-19.68-28.56a254 254 0 0 0-22.29-27.73 186 186 0 0 0-18.8-17.67c-12.18-9.84-25.39-17.81-40.48-22.35a75.9 75.9 0 0 0-33.31-2.76 72.5 72.5 0 0 0-40.88 20.59 86.6 86.6 0 0 0-17.62 24.95 98.2 98.2 0 0 0-8.55 27.89c-.34 2.22-.63 4.45-.93 6.69v-6.66a2.72 2.72 0 0 0 .28-1.68c.13-4.63.64-9.23 1.14-13.83.33-.14.5-.34.17-.66l.12-1.55c.36-.15.54-.33.19-.67 0-.52.09-1 .13-1.56.35-.14.54-.32.18-.66l.12-1.24c.36-.13.56-.31.2-.66 0-.41.07-.83.11-1.24.53-.21.61-.53.24-1v-.62c.55-.2.65-.52.25-1 0-.21 0-.42.06-.62a5.2 5.2 0 0 0 .88-4.14l.06-.61c.81-.33.69-1.15.84-1.76a195 195 0 0 1 9.43-29.17A183.3 183.3 0 0 1 96 157.76a191 191 0 0 1 15.35-20.66c1-1.1 2.48-1.9 2.65-3.61a5.5 5.5 0 0 1 1.32-1.31 45 45 0 0 0 4.39-3.74c1-.69 2.12-1.35 3.14-2.1 12.28-9 25.6-16 40.42-19.76a92.2 92.2 0 0 1 27.69-3 110 110 0 0 1 11.79 1.12 109 109 0 0 1 32.18 10.63 149 149 0 0 1 23.58 15 174.5 174.5 0 0 1 17.43 15.36q7.54 7.56 14.41 15.76A315 315 0 0 1 309.42 187c5.84 8.66 11.14 17.67 17.21 26.19 8.48 11.81 17.75 23.02 28.67 32.81a99.7 99.7 0 0 0 27 17.73 56.73 56.73 0 0 0 31.09 4.42A50.76 50.76 0 0 0 445 250.94c.3-.34.59-.75 1.15-.73.06 7.21.2 14.42-.3 21.61M207.79 76.48c6.91-1.86 26.68-7.13 33.81-7.74 1.79-.15 3.57-.19 5.36-.26h18.4a160 160 0 0 1 20.69 2.13 187.3 187.3 0 0 1 48.16 14.44 198 198 0 0 1 17.71 9.08 191.3 191.3 0 0 1 43.78 35 184 184 0 0 1 17.68 22.21 186 186 0 0 1 11.49 19.09 181 181 0 0 1 10.2 23.31c1.52 4.27 3 8.56 4.16 12.95l-6.32 1.4c-6.79 1.48-13.58 1.73-20.29-.43-7-2.25-12.84-6.38-18.09-11.35-7.9-7.47-14.33-16.17-20.37-25.15-5.67-8.46-11.35-16.9-17.59-25A279 279 0 0 0 336 122.43a195 195 0 0 0-18.4-16.63 152.5 152.5 0 0 0-36-21.82 125.7 125.7 0 0 0-30-8.56c-4.22-.64-8.46-1-12.72-1.32a119.4 119.4 0 0 0-17.54.19c-4.5.3-9 1.39-13.47 2.19" class="cls-1"/><path d="M446.13 250.21c-.56 0-.85.39-1.15.73a50.76 50.76 0 0 1-31.59 17.17 56.73 56.73 0 0 1-31.09-4.42 99.7 99.7 0 0 1-27-17.73c-10.92-9.75-20.19-20.93-28.67-32.82-6.07-8.52-11.37-17.53-17.21-26.19a315 315 0 0 0-19.08-25.42q-6.85-8.22-14.41-15.76a174.5 174.5 0 0 0-17.43-15.36 149 149 0 0 0-23.58-15 109 109 0 0 0-32.18-10.63 110 110 0 0 0-11.74-1.17 92.2 92.2 0 0 0-27.69 3c-14.82 3.81-28.14 10.73-40.42 19.76-1 .75-2.1 1.41-3.14 2.1 0-.73.57-1.1 1-1.54q3.23-3.24 6.61-6.34 5-4.61 10.29-8.84A187 187 0 0 1 155.7 99a190.6 190.6 0 0 1 28-14.36 200 200 0 0 1 22.9-7.76c.47-.13 1.21-.39 1.21-.39s9-1.89 13.49-2.19a119.4 119.4 0 0 1 17.54-.19c4.26.35 8.5.68 12.72 1.32a125.7 125.7 0 0 1 30 8.56 152.5 152.5 0 0 1 36 21.82A195 195 0 0 1 336 122.43a279 279 0 0 1 20.54 23.8c6.24 8.07 11.92 16.51 17.59 25 6 9 12.47 17.68 20.37 25.15 5.25 5 11.1 9.1 18.09 11.35 6.71 2.16 13.5 1.91 20.29.43l6.32-1.4a187 187 0 0 1 5.8 28.85 128 128 0 0 1 1.13 14.6m-3.6 43.23a189.5 189.5 0 0 1-27.32 66.81 27.4 27.4 0 0 0-2.91 4.67c-1.38 1.57-2.44 3.43-4.12 4.76-2.06 1.88-4.06 3.84-6.2 5.64a132 132 0 0 1-30.41 19.49 104.7 104.7 0 0 1-37.06 9.33 101.2 101.2 0 0 1-22.26-.93A127.8 127.8 0 0 1 276.94 392a163.4 163.4 0 0 1-24.63-14.89c-4.61-3.34-9-6.91-13.35-10.64-3.36-2.9-6.59-5.92-9.89-8.86a9 9 0 0 0-.61-.73 284 284 0 0 1-23.2-25.47 101 101 0 0 1-7-9c-1.53-1.94-3.1-3.84-4.6-5.81A145 145 0 0 0 173 294.36a90.2 90.2 0 0 0-23.68-15c-9.08-3.82-18.47-5.58-28.36-4.23a42.3 42.3 0 0 0-27.48 15.14c-7.8 9.24-11.31 20.19-11.82 32.2-.15 3.38.37 6.73.36 10.1a3.8 3.8 0 0 1-.94-1.62 191 191 0 0 1-7.57-21.15 187 187 0 0 1-5.52-25c-.27-1.84-.21-3.76-1-5.52 0-.22-.09-.45-.14-.67a1.73 1.73 0 0 0-.1-1.87 15.3 15.3 0 0 1-.36-2.66c-.26-1.87 0-3.78-.6-5.59v-11.37c.3-2.24.59-4.47.93-6.69a98.2 98.2 0 0 1 8.55-27.89 86.6 86.6 0 0 1 17.62-24.95A72.5 72.5 0 0 1 133.77 177a75.9 75.9 0 0 1 33.31 2.77c15.09 4.54 28.3 12.51 40.48 22.35a186 186 0 0 1 18.8 17.67 254 254 0 0 1 22.29 27.73c6.64 9.47 12.64 19.37 19.68 28.56a5.8 5.8 0 0 1 1.35 1.93l7.57 9.14c2.69 3.25 5.54 6.36 8.47 9.4a170.6 170.6 0 0 0 29.94 25.26c12.87 8.39 26.67 14.62 41.89 17.24 20.51 3.53 39.86.5 57.41-11.16a68.7 68.7 0 0 0 27.11-34.72c.17-.44.39-.86.59-1.29a4.3 4.3 0 0 1-.13 1.56" style="fill:#f4efef"/><path fill="#790786000" d="M408.18 369.68c-.6 2.17-2.3 3.61-3.62 5.27a185 185 0 0 1-16.47 18.12 191 191 0 0 1-16.52 14.21 187.5 187.5 0 0 1-34.07 20.85 192 192 0 0 1-31.28 11.58 187 187 0 0 1-24.59 5q-7.89 1.07-15.86 1.42c-3 .13-6.11.24-9.16.26a194 194 0 0 1-22.22-1.22 178.4 178.4 0 0 1-25.15-4.54 191.5 191.5 0 0 1-32.18-11.33 188 188 0 0 1-23.48-12.75 200 200 0 0 1-20.31-15 211 211 0 0 1-15.75-14.87c-2.12-2.19-4.06-4.56-6.08-6.84a186.3 186.3 0 0 1-19.34-26.98c-3-5-5.61-10.2-8.21-15.42a8.7 8.7 0 0 0-1.31-2.66 3.66 3.66 0 0 0-.59-2.2c0-3.37-.51-6.72-.36-10.1.51-12 4-23 11.82-32.2a42.3 42.3 0 0 1 27.48-15.14c9.89-1.35 19.28.41 28.36 4.23a90.2 90.2 0 0 1 23.68 15 145 145 0 0 1 20.72 22.26c1.5 2 3.07 3.87 4.6 5.81a101 101 0 0 0 7 9 284 284 0 0 0 23.2 25.47 9 9 0 0 1 .61.73c3.3 2.94 6.53 6 9.89 8.86 4.31 3.73 8.74 7.3 13.35 10.64a163.4 163.4 0 0 0 24.6 14.86 127.8 127.8 0 0 0 35.31 11.21 101.2 101.2 0 0 0 22.26.93 104.7 104.7 0 0 0 37.06-9.33A132 132 0 0 0 402 375.32c2.12-1.8 4.12-3.76 6.18-5.64" class="cls-1"/><path fill="#790786000" d="M445.85 271.82a106 106 0 0 1-1.4 12.67c-.74.71-.22 1.65-.46 2.45a32 32 0 0 0-1.33 4.94c-.2.43-.42.85-.59 1.29A68.7 68.7 0 0 1 415 327.89c-17.55 11.66-36.9 14.7-57.41 11.16-15.22-2.62-29-8.85-41.89-17.24a170.6 170.6 0 0 1-29.94-25.26c-2.93-3-5.78-6.15-8.47-9.4l-7.61-9.15a5.8 5.8 0 0 0-1.35-1.93c-7-9.19-13-19.09-19.68-28.56a254 254 0 0 0-22.29-27.73 186 186 0 0 0-18.8-17.67c-12.18-9.84-25.39-17.81-40.48-22.35a75.9 75.9 0 0 0-33.31-2.76 72.5 72.5 0 0 0-40.88 20.59 86.6 86.6 0 0 0-17.62 24.95 98.2 98.2 0 0 0-8.55 27.89c-.34 2.22-.63 4.45-.93 6.69v-6.66a2.72 2.72 0 0 0 .28-1.68c.13-4.63.64-9.23 1.14-13.83.33-.14.5-.34.17-.66l.12-1.55c.36-.15.54-.33.19-.67 0-.52.09-1 .13-1.56.35-.14.54-.32.18-.66l.12-1.24c.36-.13.56-.31.2-.66 0-.41.07-.83.11-1.24.53-.21.61-.53.24-1v-.62c.55-.2.65-.52.25-1 0-.21 0-.42.06-.62a5.2 5.2 0 0 0 .88-4.14l.06-.61c.81-.33.69-1.15.84-1.76a195 195 0 0 1 9.43-29.17A183.3 183.3 0 0 1 96 157.76a191 191 0 0 1 15.35-20.66c1-1.1 2.48-1.9 2.65-3.61a5.5 5.5 0 0 1 1.32-1.31 45 45 0 0 0 4.39-3.74c1-.69 2.12-1.35 3.14-2.1 12.28-9 25.6-16 40.42-19.76a92.2 92.2 0 0 1 27.69-3 110 110 0 0 1 11.79 1.12 109 109 0 0 1 32.18 10.63 149 149 0 0 1 23.58 15 174.5 174.5 0 0 1 17.43 15.36q7.54 7.56 14.41 15.76A315 315 0 0 1 309.42 187c5.84 8.66 11.14 17.67 17.21 26.19 8.48 11.81 17.75 23.02 28.67 32.81a99.7 99.7 0 0 0 27 17.73 56.73 56.73 0 0 0 31.09 4.42A50.76 50.76 0 0 0 445 250.94c.3-.34.59-.75 1.15-.73.06 7.21.2 14.42-.3 21.61m-6.62-65.09-6.32 1.4c-6.79 1.48-13.58 1.73-20.29-.43-7-2.25-12.84-6.38-18.09-11.35-7.9-7.47-14.33-16.16-20.37-25.15-5.67-8.46-11.35-16.9-17.59-25A279 279 0 0 0 336 122.43a195 195 0 0 0-18.4-16.63 152.5 152.5 0 0 0-36-21.82 125.7 125.7 0 0 0-30-8.56c-4.22-.64-8.46-1-12.72-1.32a119.4 119.4 0 0 0-17.54.19c-.28 0-.58 0-.89.08l-.66.06c-1.65.17-3.31.43-5 .73a2 2 0 0 0-.21 0h-.09l-1 .19c-2.18.39-4.13.78-5.06 1h-.19l-.37.07c6.92-1.85 26.67-7.12 33.8-7.73 1.79-.15 3.57-.19 5.36-.26h18.4a160 160 0 0 1 20.69 2.13A187.3 187.3 0 0 1 334.28 85a198 198 0 0 1 17.71 9.08 191.3 191.3 0 0 1 43.78 35 184 184 0 0 1 17.68 22.21 186 186 0 0 1 11.49 19.09 181 181 0 0 1 10.2 23.31c1.45 4.36 2.92 8.65 4.09 13.04" class="cls-3"/><path fill="#790786000" d="M446.13 250.21c-.56 0-.85.39-1.15.73a50.76 50.76 0 0 1-31.59 17.17 56.73 56.73 0 0 1-31.09-4.42 99.7 99.7 0 0 1-27-17.73c-10.92-9.75-20.19-20.93-28.67-32.82-6.07-8.52-11.37-17.53-17.21-26.19a315 315 0 0 0-19.08-25.42q-6.85-8.22-14.41-15.76a174.5 174.5 0 0 0-17.43-15.36 149 149 0 0 0-23.58-15 109 109 0 0 0-32.18-10.63 110 110 0 0 0-11.74-1.17 92.2 92.2 0 0 0-27.69 3c-14.82 3.81-28.14 10.73-40.42 19.76-1 .75-2.1 1.41-3.14 2.1 0-.73.57-1.1 1-1.54q3.23-3.24 6.61-6.34 5-4.61 10.29-8.84A187 187 0 0 1 155.7 99a190.6 190.6 0 0 1 28-14.36 200 200 0 0 1 22.9-7.76c.47-.13 1.21-.39 1.21-.39h0l.37-.07h.19c1.68-.3 3.37-.65 5.06-1l1-.19h.09a2 2 0 0 1 .21 0c1.69-.29 3.45-.55 5-.73l.66-.06c.31 0 .61-.06.89-.08a119.4 119.4 0 0 1 17.54-.19c4.26.35 8.5.68 12.72 1.32a125.7 125.7 0 0 1 30 8.56 152.5 152.5 0 0 1 36 21.82A195 195 0 0 1 336 122.43a279 279 0 0 1 20.54 23.8c6.24 8.07 11.92 16.51 17.59 25 6 9 12.47 17.68 20.37 25.15 5.25 5 11.1 9.1 18.09 11.35 6.71 2.16 13.5 1.91 20.29.43l6.32-1.4a187 187 0 0 1 5.8 28.85 128 128 0 0 1 1.13 14.6M208.36 76.36c.93-.19 2.88-.58 5.06-1-1.69.35-3.42.7-5.06 1m234.17 217.08a189.5 189.5 0 0 1-27.32 66.81 27.4 27.4 0 0 0-2.91 4.67c-1.38 1.57-2.44 3.43-4.12 4.76-2.06 1.88-4.06 3.84-6.2 5.64a132 132 0 0 1-30.41 19.49 104.7 104.7 0 0 1-37.06 9.33 101.2 101.2 0 0 1-22.26-.93A127.8 127.8 0 0 1 276.94 392a163.4 163.4 0 0 1-24.63-14.89c-4.61-3.34-9-6.91-13.35-10.64-3.36-2.9-6.59-5.92-9.89-8.86a9 9 0 0 0-.61-.73 284 284 0 0 1-23.2-25.47 101 101 0 0 1-7-9c-1.53-1.94-3.1-3.84-4.6-5.81A145 145 0 0 0 173 294.36a90.2 90.2 0 0 0-23.68-15c-9.08-3.82-18.47-5.58-28.36-4.23a42.3 42.3 0 0 0-27.48 15.14c-7.8 9.24-11.31 20.19-11.82 32.2-.15 3.38.37 6.73.36 10.1a3.8 3.8 0 0 1-.94-1.62 191 191 0 0 1-7.57-21.15 187 187 0 0 1-5.52-25c-.27-1.84-.21-3.76-1-5.52 0-.22-.09-.45-.14-.67a1.73 1.73 0 0 0-.1-1.87 15 15 0 0 1-.36-2.66c-.26-1.87 0-3.78-.6-5.59v-11.37c.3-2.24.59-4.47.93-6.69a98.2 98.2 0 0 1 8.55-27.89 86.6 86.6 0 0 1 17.62-24.95A72.5 72.5 0 0 1 133.77 177a75.9 75.9 0 0 1 33.31 2.77c15.09 4.54 28.3 12.51 40.48 22.35a186 186 0 0 1 18.8 17.67 254 254 0 0 1 22.29 27.73c6.64 9.47 12.64 19.37 19.68 28.56a5.8 5.8 0 0 1 1.35 1.93l7.57 9.14c2.69 3.25 5.54 6.36 8.47 9.4a170.6 170.6 0 0 0 29.94 25.26c12.87 8.39 26.67 14.62 41.89 17.24 20.51 3.54 39.86.5 57.41-11.16a68.7 68.7 0 0 0 27.11-34.72c.17-.44.39-.86.59-1.29a4.3 4.3 0 0 1-.13 1.56" class="cls-3"/><path fill="#790786000" d="M408.18 369.68c-.6 2.17-2.3 3.61-3.62 5.27a185 185 0 0 1-16.47 18.12 191 191 0 0 1-16.52 14.21 187.5 187.5 0 0 1-34.07 20.85 192 192 0 0 1-31.28 11.58 187 187 0 0 1-24.59 5q-7.89 1.07-15.86 1.42c-3 .13-6.11.24-9.16.26a194 194 0 0 1-22.22-1.22 178.4 178.4 0 0 1-25.15-4.54 191.5 191.5 0 0 1-32.18-11.33 188 188 0 0 1-23.48-12.75 200 200 0 0 1-20.31-15 211 211 0 0 1-15.75-14.87c-2.12-2.19-4.06-4.56-6.08-6.84a186.3 186.3 0 0 1-19.34-26.98c-3-5-5.61-10.2-8.21-15.42a8.7 8.7 0 0 0-1.31-2.66 3.66 3.66 0 0 0-.59-2.2c0-3.37-.51-6.72-.36-10.1.51-12 4-23 11.82-32.2a42.3 42.3 0 0 1 27.48-15.14c9.89-1.35 19.28.41 28.36 4.23a90.2 90.2 0 0 1 23.68 15 145 145 0 0 1 20.72 22.26c1.5 2 3.07 3.87 4.6 5.81a101 101 0 0 0 7 9 284 284 0 0 0 23.2 25.47 9 9 0 0 1 .61.73c3.3 2.94 6.53 6 9.89 8.86 4.31 3.73 8.74 7.3 13.35 10.64a163.4 163.4 0 0 0 24.6 14.86 127.8 127.8 0 0 0 35.31 11.21 101.2 101.2 0 0 0 22.26.93 104.7 104.7 0 0 0 37.06-9.33A132 132 0 0 0 402 375.32c2.12-1.8 4.12-3.76 6.18-5.64M408.15 179a170 170 0 0 1 7.32 15.65m-57.7-73.48a169.7 169.7 0 0 1 44.72 48" class="cls-3"/><path fill="#790786000" d="M118.13 354.37q-3.47-5-6.55-10.1m86.06 71.92a172 172 0 0 1-75.51-56.36m96.42 62.77q-7-1.67-13.93-3.94" class="cls-3"/></g></svg>