<svg xmlns="http://www.w3.org/2000/svg" viewBox="0 0 24 24"><defs><radialGradient id="body-pineapple" cx="35%" cy="30%" r="75%"><stop offset="0%" stop-color="#fef3c7"/><stop offset="35%" stop-color="#facc15"/><stop offset="85%" stop-color="#ca8a04"/><stop offset="100%" stop-color="#713f12"/></radialGradient><radialGradient id="glow-pineapple" cx="30%" cy="25%" r="20%"><stop offset="0%" stop-color="#fff" stop-opacity=".9"/><stop offset="100%" stop-color="#fff" stop-opacity="0"/></radialGradient><filter id="ds-pineapple" x="-30%" y="-30%" width="160%" height="160%"><feGaussianBlur in="SourceAlpha" stdDeviation=".7"/><feOffset dx="0" dy=".8"/><feComponentTransfer><feFuncA type="linear" slope=".45"/></feComponentTransfer><feMerge><feMergeNode/><feMergeNode in="SourceGraphic"/></feMerge></filter><clipPath id="clip-pineapple"><ellipse cx="12" cy="14" rx="5" ry="7"/></clipPath></defs><path d="M8.5 7L7.5 4L10 7Z" fill="#15803d"/><path d="M14 7L16.5 4L15.5 7Z" fill="#15803d"/><path d="M10.5 7L11 3L11.8 7Z" fill="#4ade80"/><path d="M12.2 7L13 3L13.5 7Z" fill="#4ade80"/><path d="M11.5 7L12 2.5L12.5 7Z" fill="#15803d"/><ellipse cx="12" cy="14" rx="5" ry="7" fill="url(#body-pineapple)" filter="url(#ds-pineapple)"/><path d="M7 19L17 9M6 16L18 6M7 9L17 19M6 12L18 22M8 7L18 17" stroke="#92400e" stroke-width=".3" fill="none" clip-path="url(#clip-pineapple)"/><ellipse cx="9" cy="13" rx="1.2" ry="4" fill="url(#glow-pineapple)"/></svg>
