<svg xmlns="http://www.w3.org/2000/svg" viewBox="0 0 24 24"><defs><radialGradient id="body-watermelon" cx="35%" cy="30%" r="75%"><stop offset="0%" stop-color="#fecaca"/><stop offset="35%" stop-color="#f87171"/><stop offset="85%" stop-color="#dc2626"/><stop offset="100%" stop-color="#7f1d1d"/></radialGradient><radialGradient id="glow-watermelon" cx="30%" cy="25%" r="20%"><stop offset="0%" stop-color="#fff" stop-opacity=".9"/><stop offset="100%" stop-color="#fff" stop-opacity="0"/></radialGradient><filter id="ds-watermelon" x="-30%" y="-30%" width="160%" height="160%"><feGaussianBlur in="SourceAlpha" stdDeviation=".7"/><feOffset dx="0" dy=".8"/><feComponentTransfer><feFuncA type="linear" slope=".45"/></feComponentTransfer><feMerge><feMergeNode/><feMergeNode in="SourceGraphic"/></feMerge></filter></defs><path d="M3 6L12 21L21 6Q12 2 3 6Z" fill="url(#body-watermelon)" filter="url(#ds-watermelon)"/><path d="M3 6Q12 1 21 6Q12 2 3 6Z" fill="#86efac"/><path d="M2 6Q12 0 22 6Q12 1 2 6Z" fill="#16a34a"/><g fill="#171717"><ellipse cx="8" cy="11" rx=".45" ry=".75" transform="rotate(-25 8 11)"/><ellipse cx="14" cy="12" rx=".45" ry=".75" transform="rotate(20 14 12)"/><ellipse cx="11" cy="15" rx=".45" ry=".75" transform="rotate(15 11 15)"/><ellipse cx="13" cy="18" rx=".45" ry=".75" transform="rotate(-25 13 18)"/></g><ellipse cx="8" cy="9" rx="2.5" ry="1.4" fill="url(#glow-watermelon)"/></svg>
