<svg xmlns="http://www.w3.org/2000/svg" viewBox="0 0 282 282"><g style="isolation:isolate"><path fill="#29abe2" d="M282 141A141 141 0 0 1 62.4 258.1a141 141 0 1 1 219-129.9q.6 6.3.6 12.8"/><path fill="#f7931e" d="m241.5 52.2-.6.4a6.1 6.1 0 0 1-2 1c-5.4 1.4-29.4 7.8-33.6 8.4s-1.8 4.7-.7 6.8a6 6 0 0 1 .7 2.8V84a6.1 6.1 0 0 1-4.5 5.9l-6.7 1.9-1.6.2H164a6.1 6.1 0 0 0-3.6 1.2 6.1 6.1 0 0 0 1.1 10.5l16.6 7.6 9 4.7a6.1 6.1 0 0 1 2.1 9c-4.1 5.6-9.9 13.6-11.1 15.9s2.5 9.9 4.4 12.9a6.1 6.1 0 0 1 .9 3.2v31.5c0 2.4-16.1 16.6-19.4 19.5l-1.3.9-13.2 6.6a6.1 6.1 0 0 1-4.4.4l-9.2-2.6a6.1 6.1 0 0 1-4.4-6.5c.9-9 3.1-27.7 6.5-39.6 2.3-8 1.5-13.1.1-16.2a6 6 0 0 0-7-3.2l-17.7 4.6a6.1 6.1 0 0 1-5.8-1.5l-9.7-9.4-.9-1.1-10-15.6a6.1 6.1 0 0 1-1-3.3v-8.6a6.1 6.1 0 0 1 4.8-6l30.3-6.7a6.1 6.1 0 0 0 4.7-5c.3-2.1.8-4.2 1.5-4.6s2.1-2.9 2.9-4.7a6.1 6.1 0 0 1 3-3.1c2-1 5.2-2.2 7.9-2.2 4.3 0 3.7-.7 3.7-.7S142 60 141 56.7s-2.1-1.6-3.1-.9a5.8 5.8 0 0 0-1.7 1.6c-1.6 2.2-6.6 9.4-8.9 13.3S118 80 116 82.7s-9.3 2-12.7 2-4.8-2-5.6-2.9l-1-.8c-1.8-1.2-7.1-5.2-8.7-9.6s20.7-6 24-9.3 1.4-7.7.7-10.9a6.1 6.1 0 0 0-2.6-3.7c-3.6-2.4-11.7-7.8-18.7-12.7C82 28 98 40 100.7 41.3S84.8 59.4 76 67.6a6.1 6.1 0 0 1-9-.7c-3.5-4.5-8-11.1-8.4-16.3-.2-2.7-1.6-9.3-3.4-17a6.2 6.2 0 0 1 2.4-6.4A141 141 0 0 1 242.4 43a6.1 6.1 0 0 1-.9 9.2M62.4 258.1A141 141 0 0 1 26.4 59v21.7s-3 3.3-3 6-9.3 2.7-10.7 6-3.3 26.7-3.3 26.7L4 128l44.7 29.3s-4.1 18-5.4 18 0 15.3 0 15.3V206s0 28 5.3 28c8.1 0 13.8 24.1 13.8 24.1M282 141a141.2 141.2 0 0 1-6.2 41.5l-3.8-.8s-5.3 7.7-17.3 21-10.6 6-10.6 6l-7.4-12.7s12-10.7 9.6-13.3-16.3-10-17.6-16.7 15.4-10.7 15.4-10.7l19.9-2.7s-8.7-14.7-7.3-19.3 14.7-7.3 14.7-7.3l10.1 2.2q.5 6.3.5 12.8"/><path fill="#ccc" d="M282 141A141 141 0 0 1 62.4 258.1a141.5 141.5 0 0 1-20.1-16.4 140.9 140.9 0 0 0 203-126.7q0-6.5-.6-12.8a140.3 140.3 0 0 0-34.3-80l-1.2-1.4q-2.9-3.3-6.1-6.4l.5.2 2.7 1.4 2.8 1.5.6.3 2.1 1.2 1 .6 2.2 1.3 3.1 2 1.1.7.5.3 1.6 1.1 2.8 2 2.7 2.1h.2l2.5 2 2.5 2.1.7.6 2 1.7.8.7 1.7 1.6.4.4 2.3 2.2 2.2 2.2.3.3 2.2 2.3.3.4L247 48l1.9 2.2a140.3 140.3 0 0 1 32.4 77.8q.7 6.5.7 13" opacity=".5" style="mix-blend-mode:multiply"/><path fill="#f2f2f2" d="M203.1 14.4q3.1 3.1 6.1 6.4A141 141 0 0 0 38.3 237.7 141 141 0 0 1 203.1 14.4" opacity=".1" style="mix-blend-mode:screen"/></g></svg>