<svg xmlns="http://www.w3.org/2000/svg" id="Layer_3" data-name="Layer 3" viewBox="0 0 48 48"><defs><style>.cls-2{fill:#3cb16f}</style></defs><circle cx="24" cy="24" r="22" style="fill:#a8c4ff"/><path d="M40.474 11.312c-.266.972-1.494 1.279-2.18 2.015a6.8 6.8 0 0 0-1.073 2.497 2.38 2.38 0 0 1-1.382 1.658 2.35 2.35 0 0 0-1.647.706c-1.146.358-1.177-1.269-.625-1.934-1.882.542-2.537 1.35-2.793 1.975-.512 1.207.225 2.363-.604 3.325a2.4 2.4 0 0 1-1.35.706c-1.566.338-2.61-.88-3.009-.573-.818.635 2.988 6.068 2.22 6.713-.398.338-1.933-.675-2.824-1.78a5.57 5.57 0 0 1-1.197-2.968c-.573-2.466-2.149-4.001-3.213-3.858-1.146.154-2.425 2.344-1.913 5.29-1.75-.634-3.51-2.384-3.592-4.318-.532-1.852-2.445-2.885-3.714-4.236.849 2.446.675 5.73 2.865 7.408a14.4 14.4 0 0 1-2.476.86c-3.96.982-4.636-1.555-4.513-6.58-4.154 11.267 4.993 6.877 2.077 13.559a10.32 10.32 0 0 0-2.773 5.74c-.01.041-.01.072-.02.113a.3.3 0 0 1-.051-.072A22.08 22.08 0 0 1 2 24a21.8 21.8 0 0 1 2.446-10.069c.767.635 1.207.655 1.463.553.675-.246.491-1.392 1.484-2.415a3.2 3.2 0 0 1 1.258-.819c1.76-.593 3.11 1.034 3.95.43a1.875 1.875 0 0 0 .01-2.497 1.9 1.9 0 0 0-1.279-.532C10.902 9.726 9.9 10.114 9.42 9.88a.95.95 0 0 1-.41-.553 1.6 1.6 0 0 1-.071-.409v-.01a2.06 2.06 0 0 1 .245-1.156c.082-.072.154-.144.236-.215.071-.072.153-.133.235-.205a.06.06 0 0 1 .04-.03 11.5 11.5 0 0 1 4.82-2.252 5.4 5.4 0 0 1 1.863-.071 12.4 12.4 0 0 1 3.192 1.494 3.88 3.88 0 0 1 2.118 1.514c5.178 3.633 12.965.86 18.787 3.326" class="cls-2"/><path d="M35.839 20.456a10.4 10.4 0 0 1-3.137 1.453c-.188.062-.422.214-.345.397a.3.3 0 0 0 .088.111 2.29 2.29 0 0 0 1.874.568 1 1 0 0 0 .447-.166 2.3 2.3 0 0 0 .358-.436c.618-.77 1.93-.694 2.508-1.496a2.5 2.5 0 0 0 .297-.63c.176-.484.957-1.943-.142-1.55-.818.293-1.282 1.239-1.948 1.75m-9.471 9.718a5.5 5.5 0 0 0 2.711 1.4.87.87 0 0 1 .602.192c.204.236.038.61-.19.822a2.34 2.34 0 0 1-2.332.366 5.8 5.8 0 0 1-2.03-1.394 3.5 3.5 0 0 1-1.234-1.939c-.082-.635-.312-1.48.483-1.01a20 20 0 0 1 1.99 1.563m9.476-2.741a.3.3 0 0 0 .178-.008 3 3 0 0 0 .48-1.688c-.141-.27-.624-.333-.894-.297-.406.053-.429.082-.442.397-.004.1.172.336.192.468.026.172-.076.346-.055.506.053.397.09.544.54.622m-4.555 2.72c-.049.026-.103.063-.104.119-.002.063.064.103.115.14a.91.91 0 0 1 .273.78 1.6 1.6 0 0 0 .111.841.9.9 0 0 0 .756.388 2.6 2.6 0 0 0 .866-.174l1.408-.451c.063-.02.138-.054.144-.12.007-.078-.082-.122-.147-.165a.62.62 0 0 1-.208-.603c.09-.66.37-1.932-.738-1.878-.421.02-.829.403-1.194.58-.419.202-.872.322-1.282.543m2.099 4.065a.61.61 0 0 1 .465.497q-.106.025-.213.048c-.284.06-1.62.338-1.59-.131.032-.494 1.06-.498 1.338-.414m9.915-3.235c-.25.006-.393.277-.592.427a1.36 1.36 0 0 1-.662.203l-2.374.296a1.216 1.216 0 0 1-1.44-.91.905.905 0 0 1 .423-1.18c.547-.19 1.57.369 2.104.52q1.261.36 2.541.644m-1.763 6.298a21.96 21.96 0 0 1-10.806 7.654 5.05 5.05 0 0 1 .553-2.395 9 9 0 0 1 .91-1.31 4.34 4.34 0 0 0 1.044-2.721 1 1 0 0 1 .02-.471c.103-.297.44-.41.737-.491 1.443-.368 3.04-.645 3.99-1.79a3 3 0 0 1 .574-.615.59.59 0 0 1 .757.01.8.8 0 0 1 .195.359c.05.307.47.839 2.026 1.77" class="cls-2"/><path d="M38.11 7.127a29.5 29.5 0 0 1-6.129.573c-.532.01-1.176-.093-1.391-.655-.103-.266-.072-.584-.174-.84a1.29 1.29 0 0 0-1.156-.603 14.7 14.7 0 0 1-5.188-1.74 24 24 0 0 1-2.784-1.688A22 22 0 0 1 24 2c.757 0 1.514.04 2.251.113.276.03.553.06.829.112.123.01.246.03.358.051a13 13 0 0 1 1.515.297 15 15 0 0 1 1.75.481 21.9 21.9 0 0 1 7.408 4.073" style="fill:#e1e8ff"/><path d="M36.48 5.892A21.99 21.99 0 0 1 5.892 36.48 21.994 21.994 0 1 0 36.48 5.892" style="fill:#686886;opacity:.5"/><circle cx="12.23" cy="14.28" r="6.65" style="fill:#e0e8f4;opacity:.44"/></svg>