<svg xmlns="http://www.w3.org/2000/svg" id="Layer_3" data-name="Layer 3" viewBox="0 0 48 48"><defs><style>.cls-2{fill:#ffd787}.cls-3{fill:#ff8163}</style></defs><path d="M45.959 22.768a21.7 21.7 0 0 0-2.15-8.357A22.16 22.16 0 0 0 24 2 22.01 22.01 0 0 0 3.648 15.647a20.3 20.3 0 0 0-1.013 3.122A21.6 21.6 0 0 0 2 24c0 .413.01.815.04 1.216A21.965 21.965 0 0 0 24 46a22.014 22.014 0 0 0 21.202-16.124 21 21 0 0 0 .593-2.898A22 22 0 0 0 46 24c0-.41-.01-.82-.041-1.232" style="fill:#ffa866"/><path d="M42.732 22.536a.5.5 0 0 1-.365-.16 6 6 0 0 0-.698-.632.5.5 0 1 1 .612-.79 7 7 0 0 1 .816.74.5.5 0 0 1-.365.842m-2.585-1.714a.5.5 0 0 1-.186-.036 13.3 13.3 0 0 0-3.942-.823.5.5 0 0 1-.462-.535.49.49 0 0 1 .535-.462 14 14 0 0 1 4.242.892.5.5 0 0 1-.187.964" class="cls-2"/><path d="M20.637 14.923a16.7 16.7 0 0 1-7.319-1.544.5.5 0 0 1 .435-.9 15.9 15.9 0 0 0 7.272 1.44.495.495 0 0 1 .51.49.5.5 0 0 1-.491.51zM41.554 34.17a.5.5 0 0 1-.133-.018 11.2 11.2 0 0 0-2.678-.24h-.002a.5.5 0 0 1-.003-1 12 12 0 0 1 2.949.276.5.5 0 0 1-.133.982m-13.162 1.502q-.137 0-.253-.005a10.16 10.16 0 0 1-6.676-3.17.5.5 0 0 1 .752-.66 9.3 9.3 0 0 0 5.968 2.83 38 38 0 0 0 3.93-.298c1.193-.123 2.503-.26 3.783-.356a.5.5 0 0 1 .075.997c-1.27.096-2.571.231-3.755.354-1.585.164-2.975.308-3.824.308m-11.044 1.987c.062-.41.9-.655 1.392-.798a3.8 3.8 0 0 1 1.32-.174c1.412.102 2.886 1.31 2.712 1.964-.185.676-2.21.87-3.735.338-.727-.256-1.76-.829-1.689-1.33m-.992-4.759c.102.154.962 1.423.532 2.067-.266.41-.921.338-3.623-.01-4.062-.522-4.686-.88-5.126-1.207a4.35 4.35 0 0 1-1.975-2.507 2.44 2.44 0 0 1 .194-1.873c.88-1.31 3.408-.818 3.571-.778 1.464.297 1.239.911 4.237 2.62a5.66 5.66 0 0 1 2.19 1.688" class="cls-3"/><path d="M13.265 34.957c2.702.348 3.357.42 3.623.01.43-.644-.43-1.913-.532-2.066a5.66 5.66 0 0 0-2.19-1.689c-2.998-1.709-2.773-2.323-4.237-2.62-.163-.04-2.69-.532-3.57.778a2.44 2.44 0 0 0-.195 1.873 4.35 4.35 0 0 0 1.975 2.507c.44.327 1.064.685 5.126 1.207m6.795 1.73a3.8 3.8 0 0 0-1.32.174c-.491.143-1.33.388-1.392.798-.071.501.962 1.074 1.689 1.33 1.524.532 3.55.338 3.735-.338.174-.655-1.3-1.862-2.712-1.964M4.2 33.566a21.8 21.8 0 0 1-2.16-8.381 22.8 22.8 0 0 1 7.797 1.167 25 25 0 0 1 7.03 3.868c3.111 2.425 2.63 3.202 5.168 4.83a14.16 14.16 0 0 0 8.247 2.425c2.303-.133 2.702-.747 5.782-1.361a18.1 18.1 0 0 1 6.344-.103 22.1 22.1 0 0 1-6.037 6.15l-.01-.01c-.4 0-.809 0-1.218-.02-.624-.01-1.177-.042-1.238-.042-2.845-.143-6.17-.133-6.17-.133a33.8 33.8 0 0 1-7.839-.828c-2.2-.522-4.165-1.494-8.002-3.418a146 146 0 0 1-7.685-4.144Z" class="cls-2"/><path d="M45.795 26.945a21 21 0 0 1-.593 2.896 16.3 16.3 0 0 0-2.835-.952c-4.359-1.064-6.682.164-10.928-.194-2.364-.195-4.022-.829-7.358-2.057-6.027-2.251-5.935-3.612-10.846-4.994-2.518-.716-3.53-.624-7.266-1.78a57 57 0 0 1-3.336-1.126 20 20 0 0 1 1.013-3.12 31.2 31.2 0 0 1 12.331 2.63c2.65 1.196 4.298 2.445 8.074 3.448 2.128.552 2.394.368 6.682 1.228 1.289.255 4.062.828 7.531 1.75 2.057.552 4.615 1.289 7.531 2.271" class="cls-3"/><path d="M43.81 14.38a21.9 21.9 0 0 1 2.15 8.36c-.195-.093-1.76-1.75-2.661-2.661-2.221-2.262-4.667-1.658-8.32-2.855-4.492-1.474-3.878-3.387-7.991-4.41-2.947-.737-2.927.337-7.501-.256-3.94-.502-4.953-1.423-8.227-1.464a18.6 18.6 0 0 0-5.67.83 22.2 22.2 0 0 1 6.048-6.16l.01.01a28.4 28.4 0 0 1 10.479-.737 30.3 30.3 0 0 1 8.248 2.271 64 64 0 0 1 6.385 3.295c3.05 1.668 5.515 2.978 7.03 3.786Z" class="cls-2"/><path d="m37.965 16.804-.044-.002a9.5 9.5 0 0 1-4.029-1.324.5.5 0 1 1 .51-.86 8.5 8.5 0 0 0 3.606 1.188.5.5 0 0 1-.043.998" class="cls-3"/><path d="M36.48 5.859A21.99 21.99 0 0 1 5.89 36.448a21.994 21.994 0 1 0 30.59-30.59" style="fill:#686886;opacity:.5"/><circle cx="12.23" cy="14.25" r="6.65" style="fill:#ffeae5;opacity:.24"/></svg>