<svg xmlns="http://www.w3.org/2000/svg" id="Layer_3" data-name="Layer 3" viewBox="0 0 48 48"><defs><style>.cls-2{fill:#86888d}.cls-5{fill:#b6acb8}</style></defs><path d="M43.54 26.04a4.34 4.34 0 0 1-.88 2.32 3.1 3.1 0 0 1-.95.75 18.55 18.55 0 0 1-8.4 10.79c-.37.22-.74.42-1.12.61-.19.09-.38.19-.57.27-.39.18-.78.34-1.18.49s-.8.29-1.22.41a19 19 0 0 1-1.88.45 17.4 17.4 0 0 1-3.34.31 18.5 18.5 0 0 1-7.04-1.39 3 3 0 0 1-2.04.35 5.3 5.3 0 0 1-2.47-1.3c-.09-.08-.19-.16-.28-.25l-.21-.21q-.195-.225-.39-.48c-.05-.09-.11-.19-.16-.29a2.48 2.48 0 0 1-.17-1.6c0-.01-.01-.01-.03-.02-.08-.09-.16-.16-.24-.25-.28-.27-.54-.55-.8-.84l-.08-.09a18.38 18.38 0 0 1 .57-24.79 3.43 3.43 0 0 1 .64-2.22 7.45 7.45 0 0 1 2.45-1.99 2.63 2.63 0 0 1 1.67-.47 2.55 2.55 0 0 1 1.13.55A18.6 18.6 0 0 1 20 6.01a17.7 17.7 0 0 1 4-.45 18 18 0 0 1 6.61 1.25 18.65 18.65 0 0 1 10.54 10.47c.07.18.15.37.21.56.13.37.26.75.37 1.14.05.19.1.38.15.58a5 5 0 0 1 .14.63c.06.26.11.52.15.79a3 3 0 0 1 .06.31c.05.34.09.68.12 1.03a4.86 4.86 0 0 1 1.19 3.72" style="fill:#dbd0d1"/><path d="M35.88 32.01c1.34-.09-.24 1.93-.65 2.24a2.45 2.45 0 0 1-1.24.52 1.49 1.49 0 0 1-1.24-.42c.76-.78 1.94-2.27 3.13-2.34m-5.45-5.14a1.74 1.74 0 0 1-.15 1.02A2.53 2.53 0 0 1 29.15 29a3.58 3.58 0 0 1-3.07.3 2.65 2.65 0 0 1-1.65-2.05 2 2 0 0 1-.02-.43c.22-3.22 5.64-2.41 6.02.04Zm-17.55-1.28a2.62 2.62 0 0 1 0 5.24 3 3 0 0 1-.42-.03 2.384 2.384 0 0 0-1.63-4.13h-.06a2.58 2.58 0 0 1 2.11-1.08" class="cls-2"/><path d="M14.38 17.04a1.84 1.84 0 0 1-.33 3.19 2.8 2.8 0 0 1-1.25.15 2.1 2.1 0 0 1-.62-.13.8.8 0 0 1-.38-.25 1.23 1.23 0 0 1-.22-1.07 2.86 2.86 0 0 1 1.12-1.68 1.53 1.53 0 0 1 1.68-.21" style="fill:#9c9495"/><path d="M36.26 14.62a2.15 2.15 0 0 1-1.03 2.58 2.4 2.4 0 0 1-1.84-.11 3.4 3.4 0 0 1-1.77-1.67 2.42 2.42 0 0 1 .19-2.36c1.4-1.95 3.93-.16 4.45 1.56" style="fill:#6d6f6a"/><path d="M34.502 17.837a3.3 3.3 0 0 1-1.31-.288 3.86 3.86 0 0 1-2.028-1.925 2.92 2.92 0 0 1 .24-2.856 2.32 2.32 0 0 1 2.352-1.022 4.13 4.13 0 0 1 2.982 2.73 2.65 2.65 0 0 1-1.316 3.186 2.4 2.4 0 0 1-.92.175m-1.157-5.126a1.36 1.36 0 0 0-1.13.64l-.002.004a1.93 1.93 0 0 0-.135 1.864 2.9 2.9 0 0 0 1.51 1.412 1.92 1.92 0 0 0 1.451.107 1.65 1.65 0 0 0 .741-1.975 3.15 3.15 0 0 0-2.188-2.03 1.5 1.5 0 0 0-.247-.022m-1.535.349" class="cls-2"/><path d="M33.803 35.28a1.94 1.94 0 0 1-1.417-.588.5.5 0 0 1 .006-.69q.17-.177.365-.389c.795-.857 1.884-2.031 3.094-2.102a.88.88 0 0 1 1.003.533c.337.905-1.056 2.404-1.322 2.604a2.93 2.93 0 0 1-1.499.62 2 2 0 0 1-.23.013m-.269-1.034a1.1 1.1 0 0 0 .402.027 1.95 1.95 0 0 0 .995-.423 4.3 4.3 0 0 0 .948-1.339c-.787.072-1.679 1.017-2.345 1.735" class="cls-5"/><path d="M29.78 35.52a.5.5 0 0 1-.38-.825 2.94 2.94 0 0 1 2.444-.815l.405.019c.187.01.372.02.56.02a.5.5 0 0 1 0 1q-.308-.002-.616-.022l-.379-.017a2.04 2.04 0 0 0-1.654.465.5.5 0 0 1-.38.175m3.56-4.19a.5.5 0 0 1-.316-.112c-.165-.134-.33-.268-.494-.412a.5.5 0 0 1 .66-.752q.233.2.464.388a.5.5 0 0 1-.314.888m2.69-11.25a.5.5 0 0 1-.4-.2 1.62 1.62 0 0 1-.162-1.643.5.5 0 1 1 .904.427.62.62 0 0 0 .059.616.5.5 0 0 1-.4.8M31.3 12.35a.5.5 0 0 1-.244-.064 2.18 2.18 0 0 1-1.106-1.827.5.5 0 0 1 .491-.509.533.533 0 0 1 .51.491 1.18 1.18 0 0 0 .593.973.5.5 0 0 1-.244.936" class="cls-5"/><path d="M13.11 20.892q-.166 0-.346-.014a2.6 2.6 0 0 1-.778-.167 1.27 1.27 0 0 1-.57-.39 1.68 1.68 0 0 1-.327-1.484 3.32 3.32 0 0 1 1.316-1.99 2.02 2.02 0 0 1 2.214-.246 2.07 2.07 0 0 1 1.043 1.995 2.43 2.43 0 0 1-1.424 2.097 3 3 0 0 1-1.128.199m.62-3.52a1.27 1.27 0 0 0-.732.28l-.006.004a2.35 2.35 0 0 0-.919 1.357.77.77 0 0 0 .093.647.35.35 0 0 0 .172.116 1.8 1.8 0 0 0 .51.106 2.3 2.3 0 0 0 1.011-.114 1.41 1.41 0 0 0 .805-1.233 1.1 1.1 0 0 0-.527-1.058.84.84 0 0 0-.407-.105m-1.03-.122" class="cls-2"/><path d="M16.28 16.68a.5.5 0 0 1-.176-.968 1.3 1.3 0 0 0 .575-.43.5.5 0 1 1 .802.596 2.27 2.27 0 0 1-1.025.77.5.5 0 0 1-.176.032" class="cls-5"/><path d="M12.7 17.75a.5.5 0 0 1-.5-.49 1.37 1.37 0 0 0-.364-.898.5.5 0 1 1 .728-.684 2.4 2.4 0 0 1 .636 1.561.5.5 0 0 1-.49.511Zm-1.31 4.74a.5.5 0 0 1-.346-.861 2.12 2.12 0 0 0 .637-1.402.5.5 0 1 1 .998.046 3.14 3.14 0 0 1-.944 2.079.5.5 0 0 1-.345.138m15.86 19.65a.5.5 0 0 1-.245-.064 17.2 17.2 0 0 1-6.491-6.563.5.5 0 1 1 .873-.486 16.2 16.2 0 0 0 6.108 6.178.5.5 0 0 1-.245.935M19.74 33a.5.5 0 0 1-.476-.35 19 19 0 0 1-.36-1.283.5.5 0 0 1 .972-.234c.098.409.215.817.34 1.216a.5.5 0 0 1-.476.651m14.121-17.01-.069-.005a1.18 1.18 0 0 1-.912-.688 1.17 1.17 0 0 1 .137-1.143.5.5 0 0 1 .806.593.16.16 0 0 0-.023.156.18.18 0 0 0 .129.092.5.5 0 0 1-.068.995" class="cls-2"/><path d="M30.43 27.365a.496.496 0 0 1-.5-.495.51.51 0 0 1 .299-.468 34 34 0 0 1 3.673-1.37.5.5 0 1 1 .295.955 33 33 0 0 0-3.513 1.307.5.5 0 0 1-.254.071" class="cls-5"/><path d="M27.258 30.021a3.6 3.6 0 0 1-1.365-.258 3.14 3.14 0 0 1-1.96-2.448 2.7 2.7 0 0 1-.022-.53 2.774 2.774 0 0 1 2.938-2.579c1.75-.067 3.813.889 4.075 2.577a.3.3 0 0 1 .005.052 2.5 2.5 0 0 1-.066.92 3 3 0 0 1-.135.359 3 3 0 0 1-1.34 1.325 4.3 4.3 0 0 1-2.13.582m-.219-4.819q-.075 0-.147.003a1.85 1.85 0 0 0-1.983 1.649 1.6 1.6 0 0 0 .016.327 2.16 2.16 0 0 0 1.339 1.654 3.06 3.06 0 0 0 2.636-.268 2.1 2.1 0 0 0 .926-.886 1.27 1.27 0 0 0 .108-.748l-.002-.022c-.183-1.035-1.631-1.709-2.893-1.709M29.4 24.1a.5.5 0 0 1-.423-.766q.41-.648.828-1.291l.365-.563a.5.5 0 1 1 .84.54l-.365.566q-.416.639-.82 1.28a.5.5 0 0 1-.425.234m-3.9 7.94a.5.5 0 0 1-.138-.981.11.11 0 0 0 .066-.079.5.5 0 0 1 .984.18 1.11 1.11 0 0 1-.774.86.5.5 0 0 1-.138.02" class="cls-5"/><path d="M23.684 26.886a18 18 0 0 1-.618-.289.5.5 0 1 1 .448-.894q.266.131.532.25l-.156.477ZM40.15 24.79a.5.5 0 0 1-.258-.072l-1.431-.87a.5.5 0 0 1 .518-.856l1.43.87a.5.5 0 0 1-.259.928m-.974 3.876a1.8 1.8 0 0 1-.477-.063.5.5 0 0 1 .262-.965.95.95 0 0 0 .89-.257.5.5 0 1 1 .717.698 1.96 1.96 0 0 1-1.392.587M16.06 38.03a.5.5 0 0 1-.314-.11 5.4 5.4 0 0 0-1.71-.924.5.5 0 1 1 .309-.952 6.3 6.3 0 0 1 2.028 1.096.5.5 0 0 1-.313.89m-3.18-6.7a3.5 3.5 0 0 1-.491-.035.5.5 0 0 1-.27-.86 1.885 1.885 0 0 0-1.289-3.265.55.55 0 0 1-.475-.271.5.5 0 0 1 .007-.52 3.114 3.114 0 1 1 2.518 4.951m-1.042-4.97a2.877 2.877 0 0 1 1.625 3.889 2.12 2.12 0 1 0-1.625-3.888" class="cls-5"/><path d="M21.17 12.12a.5.5 0 0 1-.224-.947 6 6 0 0 0 1.368-.933.5.5 0 1 1 .672.74 7 7 0 0 1-1.592 1.087.5.5 0 0 1-.224.053" class="cls-2"/><path d="M43.54 26.04a4.34 4.34 0 0 1-.88 2.32 3.1 3.1 0 0 1-.95.75 18.55 18.55 0 0 1-8.4 10.79c-.37.22-.74.42-1.12.61-.19.09-.38.19-.57.27-.39.18-.78.34-1.18.49s-.8.29-1.22.41a19 19 0 0 1-1.88.45 17.4 17.4 0 0 1-3.34.31 18.5 18.5 0 0 1-7.04-1.39 3 3 0 0 1-2.04.35 5.3 5.3 0 0 1-2.47-1.3c-.09-.08-.19-.16-.28-.25l-.21-.21q-.195-.225-.39-.48c-.05-.09-.11-.19-.16-.29a2.48 2.48 0 0 1-.17-1.6c0-.01-.01-.01-.03-.02-.08-.09-.16-.16-.24-.25-.28-.27-.54-.55-.8-.84l-.08-.09.66-.28a1.3 1.3 0 0 0 .35-.21l.24-.18.27.12a17.4 17.4 0 0 0 10.05 1.13 17.51 17.51 0 0 0 13.65-12.53l.06-.24.23-.09a1.9 1.9 0 0 0 .78-.57 3.3 3.3 0 0 0 .66-1.78 3.8 3.8 0 0 0-1.02-3.04l-.13-.13-.02-.19a17.3 17.3 0 0 0-3.92-9.64l-1.34-1.63a18.65 18.65 0 0 1 10.54 10.47c.07.18.15.37.21.56.14.37.26.75.37 1.14.05.19.1.38.15.58a5 5 0 0 1 .14.63c.06.26.11.52.15.79a3 3 0 0 1 .06.31c.05.34.09.68.12 1.03a4.86 4.86 0 0 1 1.19 3.72" style="fill:#52526b;opacity:.46"/></svg>