<svg xmlns="http://www.w3.org/2000/svg" id="Layer_3" data-name="Layer 3" viewBox="0 0 48 48"><defs><style>.cls-4{fill:#60a6e7}</style></defs><path d="M46 24a22.2 22.2 0 0 1-1.84 8.8c-.12.27-.25.53-.37.8-.13.24-.25.48-.38.72s-.26.48-.4.72c-.17.28-.34.57-.51.84-.13.2-.26.4-.4.59-.13.19-.26.37-.39.55-.07.1-.14.19-.21.29l-.12.15a2 2 0 0 0-.13.15c-.16.21-.33.42-.51.62-.05.06-.1.13-.16.19-.22.26-.46.52-.7.77-.32.34-.65.68-1 .99-.2.18-.41.36-.62.54-.22.2-.46.39-.69.58a5 5 0 0 1-.46.34l-.42.3q-.285.21-.57.39c-.07.06-.14.1-.21.15-.36.23-.71.45-1.09.65-.17.1-.33.19-.51.28-.17.09-.34.17-.51.26-.24.13-.48.25-.73.36a20 20 0 0 1-2.04.82c-.52.17-1.05.33-1.59.47a22 22 0 0 1-4.38.65c-.34.02-.69.03-1.03.03h-.04c-.38 0-.75-.01-1.12-.03-.15-.01-.31-.01-.46-.03-.29-.02-.59-.04-.88-.08q-.345-.03-.69-.09c-.15-.02-.31-.04-.46-.07a5 5 0 0 1-.51-.09c-.12-.02-.23-.04-.35-.07-.29-.06-.58-.13-.86-.19-.1-.03-.19-.05-.29-.08l-.77-.21a22 22 0 0 1-2.92-1.13c-.16-.08-.32-.15-.49-.24-.24-.12-.48-.24-.72-.38-.32-.17-.63-.35-.94-.54a.16.16 0 0 1-.08-.06c-.36-.21-.72-.45-1.07-.7q-.54-.375-1.05-.78c-.34-.27-.68-.55-1-.84-.33-.29-.64-.59-.95-.9A22 22 0 0 1 5.69 11.8c.04-.07.09-.14.13-.2.38-.55.78-1.08 1.2-1.6.19-.22.37-.44.56-.66.04-.04.08-.09.13-.14.23-.25.46-.49.7-.73a21.8 21.8 0 0 1 7.37-4.87c.32-.14.65-.26.98-.37.17-.05.33-.1.5-.16.56-.19 1.13-.33 1.7-.47a1.4 1.4 0 0 1 .17-.04 19.4 19.4 0 0 1 3.63-.52c.33-.02.66-.03 1-.03.08 0 .16-.01.24-.01.12 0 .23 0 .34.01.35 0 .71.02 1.05.04a18.6 18.6 0 0 1 2.81.36 22 22 0 0 1 2.45.63c.21.07.42.14.63.22.16.06.33.11.49.17q.63.24 1.23.51a6 6 0 0 1 .55.26c.39.19.77.39 1.15.6.1.05.19.1.29.15.33.19.65.39.97.59a6 6 0 0 1 .53.36 13 13 0 0 1 1.29.95c.29.23.57.47.84.71a2 2 0 0 0 .21.19l.01.01c.27.25.54.5.8.77.14.14.27.27.4.41.02.02.03.04.05.06a.01.01 0 0 0 .01.01c.17.18.34.36.5.55.11.12.22.25.33.38a21.8 21.8 0 0 1 4.71 10.11c.03.15.05.3.07.45a1 1 0 0 1 .02.15 5 5 0 0 1 .09.54v.02a.014.014 0 0 0 0 .02c.06.45.11.91.13 1.37.02.35.03.7.04 1.05.01.11.01.23.01.35" style="fill:#75b3ff"/><path d="M12.374 31.378a9 9 0 0 0 1.638-.041c.992-.092 1.985-.174 2.977-.266a6.3 6.3 0 0 1 2.395.102 8.1 8.1 0 0 1 2.599 1.78 13.5 13.5 0 0 0 3.141 1.965 2.7 2.7 0 0 1 .819.481.78.78 0 0 1 .174.88 5.97 5.97 0 0 1-3.622.553l-3.797-.215a7 7 0 0 1-3.857-1.003c-1.208-.91-1.812-2.589-3.224-3.11a7 7 0 0 1-.951-.318c-.83-.43-.502-1.33.368-1.177a14 14 0 0 0 1.34.369" style="fill:#5979ff"/><path d="M22.628 4.517a28.7 28.7 0 0 1-6.079-.583 2.2 2.2 0 0 1-.767-.338q.476-.2.982-.368l.491-.154a17 17 0 0 1 1.71-.47 1 1 0 0 1 .163-.041 19 19 0 0 1 3.633-.522 21.9 21.9 0 0 1 12.227 2.906 23 23 0 0 1 3.633 2.61c.061.07.143.132.205.194l.01.01a19.5 19.5 0 0 1 1.76 1.8 12.6 12.6 0 0 1-2.896-.49 56 56 0 0 1-6.047-2.477 28.5 28.5 0 0 0-9.025-2.077m-2.835 7.613c-2.21.317-4.43-.307-6.651-.604a22.3 22.3 0 0 0-7.275.236c-.052.02-.123.02-.174.04.081-.143.174-.276.266-.409.255-.388.542-.757.828-1.115a23 23 0 0 1 1.617-1.811c.798.164 1.586.45 2.405.624a16.8 16.8 0 0 0 4.175.072 16.96 16.96 0 0 1 8.114 1.258 1.5 1.5 0 0 1 .553.379.54.54 0 0 1 .05.624c-.163.215-.49.215-.767.205a21 21 0 0 0-3.14.501" style="fill:#e1e8ff"/><path d="M17.44 40.556a.5.5 0 0 1-.155-.024 67 67 0 0 1-2.423-.814c-1.2-.417-2.348-.86-3.506-1.351a58 58 0 0 1-3.427-1.6.512.512 0 0 1 .464-.913 57 57 0 0 0 3.364 1.572 55 55 0 0 0 3.446 1.327c.797.286 1.589.55 2.39.804a.511.511 0 0 1-.154 1M29.106 42.9l-.053-.003a64 64 0 0 1-3.054-.382 64 64 0 0 1-1.394-.227.512.512 0 1 1 .18-1.008 62 62 0 0 0 4.372.599.512.512 0 0 1-.051 1.02m7.029-.562c-.43.286-.86.552-1.31.798-.246.01-.502.01-.768.01-.378 0-.767 0-1.197-.01a.507.507 0 0 1-.501-.522.52.52 0 0 1 .511-.501h.01c1.075.02 1.965.02 2.804-.02a.48.48 0 0 1 .45.245m5.362-5.024a12 12 0 0 1-.747.92q-.752 0-1.535-.03a69 69 0 0 1-8.114-.757.493.493 0 0 1-.43-.573.505.505 0 0 1 .573-.43 69 69 0 0 0 8.002.737c.665.02 1.3.03 1.934.03a.53.53 0 0 1 .317.103M45.82 21.19a.01.01 0 0 1-.01.01.3.3 0 0 1-.09.01.6.6 0 0 1-.26-.07c-1.34-.79-2.86-1.58-4.64-2.43a.51.51 0 0 1-.25-.68.52.52 0 0 1 .69-.24c1.65.79 3.09 1.52 4.37 2.26h.01c.03.15.05.3.07.45a1 1 0 0 1 .02.15 5 5 0 0 1 .09.54m-6.861-3.36a.5.5 0 0 1-.204-.042q-.816-.354-1.67-.7a.511.511 0 1 1 .385-.948q.865.35 1.692.71a.511.511 0 0 1-.203.98m-4.042-1.617a.5.5 0 0 1-.178-.032 92 92 0 0 0-8.395-2.646.512.512 0 1 1 .262-.989 93 93 0 0 1 8.488 2.676.512.512 0 0 1-.177.991M8.752 31.091a.5.5 0 0 1-.207-.044q-1.25-.556-2.426-1.125a.512.512 0 1 1 .448-.92q1.156.56 2.393 1.11a.512.512 0 0 1-.208.98m-3.991-1.91a.5.5 0 0 1-.234-.057q-.772-.399-1.502-.801a.512.512 0 0 1 .493-.897q.718.396 1.478.789a.512.512 0 0 1-.235.966m18.634-1.181a.5.5 0 0 1-.131-.017q-1.098-.291-2.204-.594l-.603-.164a.511.511 0 1 1 .268-.988l.603.165q1.102.301 2.198.592A.512.512 0 0 1 23.395 28m13.036-3.54a.5.5 0 0 1-.153-.023 284 284 0 0 0-3.433-1.063.511.511 0 0 1 .296-.979c1.189.358 2.337.717 3.444 1.066a.512.512 0 0 1-.154 1m-27.649-.778a.5.5 0 0 1-.16-.026 176 176 0 0 1-5.264-1.822.511.511 0 1 1 .35-.962c1.659.605 3.42 1.215 5.234 1.812a.512.512 0 0 1-.16.998" class="cls-4"/><path d="M18.51 12.73a22 22 0 0 1-3.734-.426 46 46 0 0 0-1.702-.27.512.512 0 0 1 .136-1.015c.58.078 1.16.177 1.74.277a17.7 17.7 0 0 0 4.185.389.512.512 0 1 1 .07 1.021q-.348.023-.695.023m4.805-.599a.512.512 0 0 1-.071-1.019 1.2 1.2 0 0 0-.348-.22 16.3 16.3 0 0 0-7.885-1.217l-.72.037a20 20 0 0 1-2.484.03.511.511 0 1 1 .074-1.02 19 19 0 0 0 2.354-.032l.726-.037a17.25 17.25 0 0 1 8.355 1.307 2 2 0 0 1 .741.53.984.984 0 0 1-.67 1.636z" style="fill:#a8c4ff"/><path d="M26.198 5.481a.5.5 0 0 1-.097-.009 28 28 0 0 0-3.506-.444q-.514-.03-1.033-.048a.511.511 0 1 1 .036-1.023q.532.018 1.06.05a29 29 0 0 1 3.635.46.512.512 0 0 1-.095 1.014M40.93 9.94c-.01.01-.02.02-.03.02a.46.46 0 0 1-.3.11h-.03a11.5 11.5 0 0 1-1.94-.25 10 10 0 0 1-1.07-.26 30 30 0 0 1-4.11-1.61c-.66-.31-1.32-.61-1.99-.88-.73-.3-1.46-.57-2.2-.8a.504.504 0 0 1-.34-.63v-.01a.53.53 0 0 1 .65-.34c.76.25 1.53.52 2.28.83.68.28 1.35.59 2.03.89a27.4 27.4 0 0 0 3.96 1.57c.08.02.17.05.25.07a12 12 0 0 0 1.97.35.02.02 0 0 0 .03 0 .01.01 0 0 0 .01.01c.17.18.34.36.5.55.11.12.22.25.33.38" class="cls-4"/><path d="M45.99 23.65V24a23 23 0 0 1-.17 2.77 22.2 22.2 0 0 1-1.66 6.03c-.12.27-.25.53-.37.8-.13.24-.25.48-.38.72s-.26.48-.4.72c-.17.28-.34.57-.51.84-.13.2-.26.4-.4.59-.13.19-.26.37-.39.55-.07.1-.14.19-.21.29l-.12.15a8 8 0 0 1-.63.77c-.05.06-.11.13-.17.19-.22.26-.46.52-.7.77-.32.34-.65.68-1 .99-.2.18-.41.36-.62.54-.22.2-.46.39-.69.58a5 5 0 0 1-.46.34 16 16 0 0 1-1.2.84c-.36.23-.71.45-1.09.65-.17.1-.33.19-.51.28-.17.09-.34.17-.51.26-.24.13-.48.25-.73.36a20 20 0 0 1-2.04.82c-.52.17-1.05.33-1.59.47a22 22 0 0 1-4.38.65c-.34.02-.69.03-1.03.03h-.04c-.38 0-.75-.01-1.12-.03-.15-.01-.31-.01-.46-.03-.29-.02-.59-.04-.88-.08q-.345-.03-.69-.09c-.15-.02-.31-.04-.46-.07a5 5 0 0 1-.51-.09c-.12-.02-.23-.04-.35-.07-.29-.06-.58-.13-.86-.19-.1-.03-.19-.05-.29-.08l-.77-.21a22 22 0 0 1-2.92-1.13c-.16-.08-.32-.15-.49-.24-.24-.12-.48-.24-.72-.38-.32-.17-.63-.35-.94-.54a.16.16 0 0 1-.08-.06c-.36-.21-.72-.45-1.07-.7q-.54-.375-1.05-.78c-.34-.27-.68-.55-1-.84-.33-.29-.64-.59-.95-.9a22 22 0 0 1-2.5-3.01 21.84 21.84 0 0 0 10.68 3.82h.02c.41.03.83.05 1.25.06h.01c.17.01.35.01.52.01A22 22 0 0 0 38.63 9.82c-.08-.19-.16-.38-.25-.57-.09-.2-.18-.4-.28-.6h-.01a21 21 0 0 0-1.62-2.76c.01 0 .01.01.02.01A22.5 22.5 0 0 1 40.06 9a7 7 0 0 1 .5.56 4 4 0 0 1 .34.4 21.8 21.8 0 0 1 4.73 10.09c.03.15.06.3.08.45a1 1 0 0 1 .02.15c.03.18.06.36.08.55l.01.01a.014.014 0 0 0 0 .02c.05.45.1.91.13 1.37.02.35.03.7.04 1.05" style="fill:#5979ff;opacity:.38"/><circle cx="12.22" cy="14.28" r="6.65" style="fill:#e1e8ff;opacity:.53"/></svg>