<svg xmlns="http://www.w3.org/2000/svg" viewBox="0 0 64 64"><defs><style>.cls-2,.cls-5{fill:#f7f6f8}.cls-2{opacity:.1}</style></defs><g id="Layer_2" data-name="Layer 2"><g id="Layer_1-2" data-name="Layer 1"><path d="m53.87 10.13.49.51a31 31 0 0 1 3.53 4.43c.27.42.54.84.79 1.28a30.92 30.92 0 0 1-23.6 46.42 30.85 30.85 0 0 1-24.95-8.9 30.3 30.3 0 0 1-3.44-4.1 30 30 0 0 1-1.82-2.91 31 31 0 0 1-3.12-8.39 31 31 0 0 1-.64-4.91v-2a31 31 0 0 1 41.27-28.7c.7.25 1.39.53 2.07.83a30.7 30.7 0 0 1 8.3 5.38c.38.34.75.69 1.12 1.06" style="fill:#ef9014"/><path d="M35.17 1.24c-3.65 8.18-9.56 19.71-15.47 23.93S6 32.18 1.12 33.56v-2a30.8 30.8 0 0 1 .9-7 37.7 37.7 0 0 0 13.58-6.23c5.26-3.76 8.86-10.82 11.5-16.87a30.7 30.7 0 0 1 8.07-.22" class="cls-2"/><path d="M52.75 9.07c-5.81 10.65-13.19 22.21-20.16 27.4-8.43 6.27-18.72 10.69-25.9 13.3a30 30 0 0 1-1.82-2.91 31 31 0 0 1-3.12-8.39C4.82 38 15.13 36 27.29 26.94c7.31-5.46 12.89-14.79 17.16-23.26a30.7 30.7 0 0 1 8.3 5.39m5.92 7.27a30.74 30.74 0 0 1 4.2 13.85C58.19 39.6 51.37 52 44.37 60.34a30.8 30.8 0 0 1-9.29 2.43 31.1 31.1 0 0 1-10.17-.66A72 72 0 0 0 32.76 57c13.96-10.41 21.58-34.94 25.91-40.66" class="cls-2"/><path d="M44.28 3.61a31 31 0 0 1 9.59 6.53c2.26 2.26-5.69 13.89-17.77 26s-23.7 20-26 17.77a31 31 0 0 1-5.26-7 28 28 0 0 1-1.26-2.58c-4 8-4.87 14.6-1.68 17.79s9.81 2.3 17.79-1.67c7.13-3.57 15.37-9.61 23.21-17.46s13.93-16.14 17.49-23.27c4-8 4.86-14.6 1.67-17.79s-9.8-2.3-17.78 1.68" style="fill:#aa752e"/><g style="opacity:.1"><path d="M47.58 5.28c.35.2.69.4 1 .63C53.46 3.71 57.23 3.25 59 5s1.3 5.53-.9 10.39c-3.1 6.87-9.67 15.9-18.24 24.47S22.25 55 15.39 58.09C10.54 60.28 6.77 60.75 5 59s-1.3-5.53.9-10.39c-.22-.34-.42-.68-.62-1-2.61 5.58-3.11 10-1 12.1s6.52 1.64 12.08-1c6.87-3.2 15.56-9.6 24.13-18.18s15-17.25 18.17-24.13c2.6-5.57 3.1-9.95 1-12.09s-6.5-1.63-12.08.97" class="cls-5"/><path d="M50.3 7.07c.32.23.64.47.94.71 2.21-.63 3.83-.54 4.67.3s.93 2.46.29 4.68c-1.59 5.64-7.8 15.12-18.06 25.38S18.41 54.62 12.77 56.21c-2.22.64-3.84.55-4.68-.29s-.93-2.46-.3-4.69c-.25-.3-.48-.61-.71-.93-.93 2.88-.88 5.09.33 6.3s3.42 1.26 6.29.32c6.26-2 15.7-8.65 25.14-18.09S54.91 20 56.93 13.7c.93-2.88.88-5.09-.33-6.3s-3.42-1.26-6.3-.33" class="cls-5"/></g></g></g></svg>