<svg xmlns="http://www.w3.org/2000/svg" id="Layer_3" data-name="Layer 3" viewBox="0 0 48 48"><defs><style>.cls-1{fill:#ffd787}</style></defs><path d="M35.48 23.29c-.16.09-.32.19-.49.28-.12.07-.25.14-.38.21a67 67 0 0 1-9.59 4.2 68 68 0 0 1-9.73 2.74c-.19.04-.37.07-.55.1a11.5 11.5 0 0 1-1.85-3.84 2 2 0 0 1-.05-.21 10.8 10.8 0 0 1-.33-2.55 11.49 11.49 0 0 1 8.51-11.33 11.3 11.3 0 0 1 4.65-.26A11.54 11.54 0 0 1 33.13 17c.14.19.28.38.42.58a10 10 0 0 1 .91 1.66 11 11 0 0 1 .65 1.78 11.3 11.3 0 0 1 .37 2.27" class="cls-1"/><path d="M35.48 23.29a10.7 10.7 0 0 1-.19 2.84 11.475 11.475 0 0 1-17.74 7.38c-.31-.21-.61-.43-.9-.67a11 11 0 0 1-1.91-2.02c.18-.03.36-.06.55-.1a68 68 0 0 0 9.73-2.74 67 67 0 0 0 9.59-4.2c.13-.07.26-.14.38-.21.17-.09.33-.19.49-.28" class="cls-1"/><path d="M23.563 32.647a.5.5 0 0 1-.103-.01 31.3 31.3 0 0 1-5.691-1.776.5.5 0 0 1 .389-.922 30.3 30.3 0 0 0 5.508 1.719.5.5 0 0 1-.103.989m3.146.495-.052-.002a26 26 0 0 1-.745-.088q-.365-.046-.728-.102a.5.5 0 0 1 .15-.989q.353.053.707.1.363.047.719.084a.5.5 0 0 1-.051.997m7.432-12.881a.5.5 0 0 1-.273-.081 27 27 0 0 0-6.08-2.896.5.5 0 1 1 .32-.947 28 28 0 0 1 6.307 3.006.5.5 0 0 1-.274.918m-.236 8.999-.051-.002a61 61 0 0 1-6.669-1.121l-.454-.1a.5.5 0 1 1 .22-.976l.447.099a60 60 0 0 0 6.558 1.103.5.5 0 0 1-.05.997m-13.852-8.55a.5.5 0 0 1-.103-.01 58 58 0 0 0-5.907-.963.5.5 0 1 1 .102-.995 59 59 0 0 1 6.01.98.5.5 0 0 1-.102.989m2.554 8.983a.5.5 0 0 1-.129-.017q-1.099-.293-2.16-.633a.5.5 0 1 1 .304-.952q1.036.331 2.114.62a.5.5 0 0 1-.129.982m4.041-10.034a.5.5 0 0 1-.143-.02 46 46 0 0 0-4.42-1.08.5.5 0 1 1 .189-.983c1.507.29 3.026.66 4.517 1.104a.5.5 0 0 1-.143.98m-6.626-1.452-.07-.005q-.807-.113-1.572-.188a.5.5 0 0 1 .098-.995q.785.076 1.613.193a.5.5 0 0 1-.069.995" style="fill:#ffa866"/><path d="M26.98 35.11a11.46 11.46 0 0 1-9.43-1.6 11.3 11.3 0 0 0 4.02-.36 11.676 11.676 0 0 0 8.26-14.3 11.56 11.56 0 0 0-4.16-6.22 11.496 11.496 0 0 1 1.31 22.48" style="fill:#686886;opacity:.66"/><path d="M44.38 20.33a19 19 0 0 1-2.62 2.11c-.13.09-.26.18-.39.26a52 52 0 0 1-6.08 3.43c-.18.09-.36.18-.55.27a96 96 0 0 1-8.97 3.7 96 96 0 0 1-8.51 2.59c-.21.05-.41.1-.61.15-7.85 1.91-13.72 2.05-14.44.03-.69-1.93 3.54-5.32 10.3-8.65a10.8 10.8 0 0 0 .33 2.55c-2.71 1.54-4.25 2.91-3.97 3.73.3.85 2.55.92 5.87.32.18-.03.36-.06.55-.1a68 68 0 0 0 9.73-2.74 67 67 0 0 0 9.59-4.2c.13-.07.26-.14.38-.21.17-.09.33-.19.49-.28a21 21 0 0 0 1.85-1.19 7.3 7.3 0 0 0 1.41-1.26c.36-.43.5-.8.39-1.1-.2-.55-1.2-.77-2.77-.69q-.42.015-.9.06c-.31.03-.65.08-1 .13A10.7 10.7 0 0 0 33.13 17c.57-.12 1.11-.23 1.65-.34 1.11-.21 2.17-.38 3.15-.5a26 26 0 0 1 2.88-.22c2.78-.1 4.6.37 4.98 1.44.28.78-.25 1.79-1.41 2.95" style="fill:#ff8163"/><path d="M44.38 20.33a19 19 0 0 1-2.62 2.11c-.13.09-.26.18-.39.26l-6.76 1.08c.13-.07.26-.14.38-.21.17-.09.33-.19.49-.28a21 21 0 0 0 1.85-1.19 7.3 7.3 0 0 0 1.41-1.26c.36-.43.5-.8.39-1.1-.2-.55-1.2-.77-2.77-.69q-.42.015-.9.06c-.31.03-.65.08-1 .13a10 10 0 0 0-.91-1.66l1.23-.92c1.11-.21 2.17-.38 3.15-.5a26 26 0 0 1 2.88-.22c2.78-.1 4.6.37 4.98 1.44.28.78-.25 1.79-1.41 2.95" style="fill:#666"/></svg>