<svg xmlns="http://www.w3.org/2000/svg" data-name="Layer 3" viewBox="0 0 48 48"><path d="M23.959 43.786c-.51 0-1.013 1.407-1.513 1.372-.508-.036-.962-.41-1.46-.48-.503-.073-1.384 1.722-1.875 1.616-.496-.108-.796-1.28-1.278-1.422-.487-.143-1.365.658-1.837.482-.474-.178-.476-1.652-.934-1.862-.46-.211-.096-1.952-.538-2.195-.444-.243-1.993 1.43-2.417 1.156-.425-.274.227-2.067-.176-2.37-.405-.303-.89-.39-1.272-.72-.382-.331-.365-.97-.722-1.328s-1.6.183-1.931-.199c-.331-.381-.668-.75-.972-1.154s-.731-.72-1.005-1.146c-.274-.424.946-1.675.703-2.12-.242-.441-2.415.125-2.626-.335-.21-.458.556-1.329.378-1.803-.176-.472.365-1.123.222-1.61-.142-.482-1.262-.67-1.37-1.166-.107-.49-.291-.965-.363-1.467-.071-.498-.095-1-.13-1.508-.036-.5-.994-1.001-.994-1.51s2.404-.909 2.44-1.41c.036-.507-1.72-1.16-1.65-1.658.073-.503.47-.956.577-1.447.108-.496 1.038-.749 1.18-1.232.143-.486-1.492-1.573-1.315-2.044.178-.475.294-1.06.504-1.518.212-.46 2.739.254 2.98-.188.244-.444-1.977-2.358-1.703-2.781.274-.426 1.115-.557 1.418-.961s1.32-.272 1.65-.653c.332-.382.188-1.24.545-1.597s1.274-.143 1.656-.475c.381-.33 1.589.45 1.993.146.404-.303.418-1.02.843-1.294.424-.273.3-1.42.743-1.663.442-.242 1.112-.02 1.573-.231.457-.21 1.17.32 1.644.143.47-.176.956-.034 1.443-.177.482-.142.617-1.427 1.114-1.535.49-.107 1.01.052 1.513-.02.497-.07.856-1.726 1.363-1.762.5-.035 1.09 1.13 1.599 1.13.51 0 1.115-1.4 1.616-1.365.508.036 1.013.784 1.51.855.504.072 1.136-.21 1.627-.103.496.107.795 1.168 1.277 1.31.487.143.605 1.302 1.077 1.478.474.178 1.257-.473 1.715-.263.46.211.15 1.828.593 2.07.444.243 2.013-1.466 2.437-1.193.425.274 1.029.394 1.432.697.405.303.954.542 1.336.873.381.331.853.683 1.21 1.04s1.116.477 1.447.86c.33.38-.881 2.066-.578 2.47s.45.88.724 1.304.995.563 1.239 1.007c.242.442 1.857.26 2.068.72.21.458-2.211 2.021-2.034 2.496.177.471 2.733.15 2.876.636.142.483-1.762 1.506-1.654 2.002.106.49 1.109.795 1.18 1.298.072.497-1.57 1.126-1.534 1.633.036.501 3.325.892 3.325 1.401 0 .51.011 1.135-.024 1.636-.036.507-.811 1.029-.882 1.526-.072.504-1.542.773-1.65 1.264-.107.496.509 1.172.367 1.655-.143.487-.955.748-1.132 1.22-.178.474-1.486.402-1.696.86-.211.46-.255.883-.498 1.325-.243.444.202 1.21-.072 1.634-.274.426-1.258.26-1.561.663-.304.405-.264.962-.595 1.343-.331.382.207 1.517-.15 1.874s-.847.561-1.229.893c-.381.33-.678.754-1.082 1.057s-.921.426-1.346.7c-.424.273-.661.854-1.105 1.097-.442.243-.439 1.485-.9 1.696-.457.21-1.925-2.02-2.4-1.842-.47.176-.847.333-1.334.476-.482.142-.768.75-1.264.858-.49.106-.976-.144-1.478-.072-.498.072-.903.32-1.41.356-.501.035-.939-.45-1.448-.45" style="fill:#ffa866"/><circle cx="24" cy="24" r="17" style="fill:#fcf260"/><path d="M13.12 10.93a38.1 38.1 0 0 1 12.594-.884m-4.216 2.884a28.3 28.3 0 0 1 10.69-.408 21.4 21.4 0 0 0 4.8.503m-25.426 6.832c5.075-1.16 10.318-2.097 15.467-1.332 2.326.345 4.682 1.034 6.988.576m-11.92 6.688a34.8 34.8 0 0 0 13.427.644M12.88 31.43a10.83 10.83 0 0 0 5.412 2.353 15.5 15.5 0 0 0 5.93-.36c1.6-.39 3.25-.985 4.853-.605a2.5 2.5 0 0 1 1.424.824 1.42 1.42 0 0 1 .163 1.567 2.17 2.17 0 0 1-1.458.806c-3.467.788-4.202 2.451-6.03 1.876-.763-.24-1.521-.809-1.457-1.202.056-.338.704-.443 1.64-.728a17 17 0 0 0 2.987-1.239" style="fill:none;stroke:#ffa866;stroke-linecap:round;stroke-linejoin:round"/></svg>