<svg xmlns="http://www.w3.org/2000/svg" id="Layer_3" data-name="Layer 3" viewBox="0 0 48 48"><defs><style>.cls-1{fill:#75b3ff}</style></defs><path d="M32.75 13.74c-.05.29-.1.58-.16.88a71.4 71.4 0 0 1-3.27 11.36 74.6 74.6 0 0 1-4.93 10.74c-.15.27-.3.53-.46.78-.21 0-.42-.01-.63-.02a.2.2 0 0 1-.08-.01q-.39-.015-.78-.06a1.7 1.7 0 0 1-.33-.05.7.7 0 0 1-.14-.02h-.03c-.18-.03-.37-.06-.56-.1-.02 0-.04-.01-.06-.01-.21-.04-.41-.09-.62-.14a.04.04 0 0 0-.03-.01.2.2 0 0 0-.05-.01c-.01 0-.02-.01-.03-.01a.1.1 0 0 0-.05-.01q-.09-.03-.21-.06c-.31-.08-.61-.19-.91-.29a.14.14 0 0 0-.06-.02c-.1-.04-.2-.07-.29-.11-.08-.04-.15-.06-.22-.09a.4.4 0 0 0-.1-.04c-.18-.08-.36-.15-.52-.24a.2.2 0 0 0-.08-.03h-.01c-.15-.08-.32-.17-.48-.26-.09-.04-.17-.09-.25-.13a5 5 0 0 1-.32-.19c-.13-.07-.27-.17-.4-.25a.6.6 0 0 0-.14-.08c-.17-.13-.35-.24-.53-.38l-.02-.02c-.16-.11-.32-.24-.47-.36a1.4 1.4 0 0 1-.18-.15c-.03-.03-.07-.05-.1-.08-.07-.06-.14-.12-.21-.19a2.3 2.3 0 0 1-.28-.26c-.06-.06-.13-.11-.19-.17-.06-.07-.13-.13-.19-.2-.08-.08-.16-.16-.23-.24a.1.1 0 0 1-.04-.03c-.15-.16-.3-.32-.43-.49a5 5 0 0 1-.42-.52c-.02-.03-.05-.06-.07-.09-.11-.15-.22-.29-.31-.44a2.3 2.3 0 0 1-.25-.38 8 8 0 0 1-.45-.74c-.11-.2-.22-.39-.31-.59-.08-.17-.17-.34-.24-.52a13.4 13.4 0 0 1-.96-3.32 4 4 0 0 1-.07-.49 12 12 0 0 1-.1-1.6c0-.26.01-.51.02-.76.01-.14.02-.28.04-.42a6 6 0 0 1 .08-.74 12 12 0 0 1 .33-1.61c.05-.21.12-.43.19-.63.04-.14.09-.27.14-.41.08-.24.18-.47.27-.71.11-.27.24-.53.37-.78.12-.23.23-.45.37-.67a.5.5 0 0 1 .05-.1 14 14 0 0 1 .97-1.45c.04-.04.07-.08.11-.12a5 5 0 0 1 .41-.49c.05-.06.11-.12.16-.19l.05-.05c.16-.17.32-.34.49-.51a14 14 0 0 1 1.94-1.58c.01-.01.03-.02.04-.03.17-.1.34-.2.5-.31.15-.09.29-.17.44-.26.24-.13.49-.26.75-.38a8 8 0 0 1 .8-.34 10 10 0 0 1 1.21-.42 7 7 0 0 1 .76-.2c.31-.07.63-.13.95-.18h.02a7 7 0 0 1 .9-.11h.02a3 3 0 0 1 .27-.02c.28-.02.56-.03.85-.03h.07a13.4 13.4 0 0 1 8.68 3.24" class="cls-1"/><path d="M37.5 24c0 .23-.01.47-.02.7q-.015.36-.06.72a4.5 4.5 0 0 1-.08.63 13.45 13.45 0 0 1-5.28 8.77c-.25.19-.51.37-.77.53-.22.16-.44.28-.66.42-.13.06-.26.13-.4.2-.16.09-.32.16-.48.24-.33.16-.66.29-1 .43-.35.12-.69.24-1.04.34a12.5 12.5 0 0 1-2.59.47 3 3 0 0 1-.27.02c-.28.02-.56.03-.85.03h-.07c.16-.25.31-.51.46-.78a74.6 74.6 0 0 0 4.93-10.74 71.4 71.4 0 0 0 3.27-11.36c.06-.3.11-.59.16-.88.15.13.31.27.46.41.07.06.15.13.22.2a2 2 0 0 1 .19.19c.06.06.12.13.18.2a8 8 0 0 1 .55.61c.18.22.36.44.51.65q.255.345.48.69a8 8 0 0 1 .44.72c.13.23.26.48.39.73.15.3.28.62.4.93.07.17.13.35.19.54a7 7 0 0 1 .31 1.01 12 12 0 0 1 .29 1.49A12 12 0 0 1 37.5 24" class="cls-1"/><path d="M21.923 16.73a4.154 4.154 0 1 1-8.308 0 4 4 0 0 1 .447-1.848v-.01c.156-.177.322-.343.488-.509a13.6 13.6 0 0 1 1.942-1.578 4 4 0 0 1 1.277-.208 4.153 4.153 0 0 1 4.154 4.154" style="fill:#e1e8ff;opacity:.68"/><path d="M31.232 12.614a13.484 13.484 0 0 1-18.618 18.618 13.492 13.492 0 1 0 18.618-18.618" style="fill:#52526b;opacity:.46"/><path d="M33.62 14.54c-.02.09-.03.18-.05.27a73 73 0 0 1-3.31 11.51 74 74 0 0 1-5.01 10.9c-.04.07-.09.15-.13.23-1.65 2.88-5.37 8.66-8.46 8.66a2.2 2.2 0 0 1-.8-.14c-3.23-1.2-2.16-8.95-1.48-12.52.06.07.13.13.19.2.06.06.13.11.19.17a2.3 2.3 0 0 0 .28.26c.07.07.14.13.21.19-1.07 5.96-.71 10.14.95 10.76 1.66.61 4.65-2.32 7.73-7.53.16-.25.31-.51.46-.78a74.6 74.6 0 0 0 4.93-10.74 71.4 71.4 0 0 0 3.27-11.36c.06-.3.11-.59.16-.88 1.07-5.97.71-10.16-.95-10.77s-4.65 2.32-7.73 7.53H24c-.29 0-.57.01-.85.03a3 3 0 0 0-.27.02c1.8-3.13 6.05-9.7 9.26-8.52 3.23 1.2 2.16 8.93 1.48 12.51" style="fill:#a8c4ff"/></svg>