<svg xmlns="http://www.w3.org/2000/svg" viewBox="0 0 24 24"><defs><filter id="a" width="160%" height="160%" x="-30%" y="-30%"><feGaussianBlur in="SourceAlpha" stdDeviation=".5"/><feOffset dx=".3" dy=".8"/><feComponentTransfer><feFuncA slope=".4" type="linear"/></feComponentTransfer><feMerge><feMergeNode/><feMergeNode in="SourceGraphic"/></feMerge></filter></defs><g filter="url(#a)"><path fill="#7c2d12" d="m16 15 5-5-2-4-6 7z"/><path fill="#fb923c" d="m8 15 4-2 4 2-4 2z"/><path fill="#ea580c" d="m8 15 4 2v3l-4-2z"/><path fill="#7c2d12" d="m12 17 4-2v3l-4 2z"/><path fill="#fb923c" d="m5 12 9-7 2 4-5 1z"/><path fill="#ea580c" d="m5 12 6-2 1 3z"/><path fill="#7c2d12" d="m11 10 5-1-4 4z"/><path fill="#ea580c" d="m10 8 3-2-2-3z"/><path fill="#7c2d12" d="m14 5 1 2 1-4z"/></g></svg>