<svg xmlns="http://www.w3.org/2000/svg" viewBox="0 0 24 24"><defs><radialGradient id="a" cx="35%" cy="30%" r="75%"><stop offset="0%" stop-color="#fef3c7"/><stop offset="35%" stop-color="#facc15"/><stop offset="85%" stop-color="#ca8a04"/><stop offset="100%" stop-color="#713f12"/></radialGradient><radialGradient id="d" cx="30%" cy="25%" r="20%"><stop offset="0%" stop-color="#fff" stop-opacity=".9"/><stop offset="100%" stop-color="#fff" stop-opacity="0"/></radialGradient><clipPath id="c"><ellipse cx="12" cy="14" rx="5" ry="7"/></clipPath><filter id="b" width="160%" height="160%" x="-30%" y="-30%"><feGaussianBlur in="SourceAlpha" stdDeviation=".7"/><feOffset dy=".8"/><feComponentTransfer><feFuncA slope=".45" type="linear"/></feComponentTransfer><feMerge><feMergeNode/><feMergeNode in="SourceGraphic"/></feMerge></filter></defs><path fill="#15803d" d="m8.5 7-1-3L10 7ZM14 7l2.5-3-1 3Z"/><path fill="#4ade80" d="m10.5 7 .5-4 .8 4Zm1.7 0 .8-4 .5 4Z"/><path fill="#15803d" d="m11.5 7 .5-4.5.5 4.5Z"/><ellipse cx="12" cy="14" fill="url(#a)" filter="url(#b)" rx="5" ry="7"/><path fill="none" stroke="#92400e" stroke-width=".3" d="M7 19 17 9M6 16 18 6M7 9l10 10M6 12l12 10M8 7l10 10" clip-path="url(#c)"/><ellipse cx="9" cy="13" fill="url(#d)" rx="1.2" ry="4"/></svg>