<svg xmlns="http://www.w3.org/2000/svg" viewBox="0 0 24 24"><defs><radialGradient id="body-strawberry" cx="35%" cy="30%" r="75%"><stop offset="0%" stop-color="#fecdd3"/><stop offset="35%" stop-color="#fb7185"/><stop offset="85%" stop-color="#e11d48"/><stop offset="100%" stop-color="#881337"/></radialGradient><radialGradient id="glow-strawberry" cx="30%" cy="25%" r="20%"><stop offset="0%" stop-color="#fff" stop-opacity=".9"/><stop offset="100%" stop-color="#fff" stop-opacity="0"/></radialGradient><filter id="ds-strawberry" x="-30%" y="-30%" width="160%" height="160%"><feGaussianBlur in="SourceAlpha" stdDeviation=".7"/><feOffset dx="0" dy=".8"/><feComponentTransfer><feFuncA type="linear" slope=".45"/></feComponentTransfer><feMerge><feMergeNode/><feMergeNode in="SourceGraphic"/></feMerge></filter></defs><path d="M12 6Q4 7 5 12Q7 18 12 21Q17 18 19 12Q20 7 12 6Z" fill="url(#body-strawberry)" filter="url(#ds-strawberry)"/><g fill="#fef9c3"><circle cx="8" cy="10" r=".4"/><circle cx="12" cy="9" r=".4"/><circle cx="16" cy="10" r=".4"/><circle cx="9" cy="13" r=".4"/><circle cx="15" cy="13" r=".4"/><circle cx="11" cy="16" r=".4"/><circle cx="14" cy="17" r=".4"/><circle cx="12" cy="19" r=".4"/></g><path d="M7 6L5 4L9 6.5ZM15 6L19 4L17 6.5ZM11.5 6L12 3L12.5 6Z" fill="#15803d"/><path d="M9 6L8 3L11 6ZM13 6L16 3L15 6Z" fill="#4ade80"/><ellipse cx="9" cy="10" rx="2.5" ry="1.6" fill="url(#glow-strawberry)"/></svg>
