<svg xmlns="http://www.w3.org/2000/svg" viewBox="0 0 512 512"><g fill="none" fill-rule="evenodd"><path fill="#FAD841" d="M14.21 409.39s-7.707 11.762 40.753 19.261c48.46 7.487 176.762 126.058 382.336-125.7 57.447-70.361 34.693-127.503 42.427-170.849s29.822-67.713 6.57-77.99c-23.252-10.263-38.131-7.985-41.276 2.01-3.132 9.982 6.788 76.3-34.577 87.101-57.255 14.96-129.3 162.493-304.95 221.376 0 0-37.888 15.28-65.205 17.123-27.33 1.843-29.95 19.49-26.077 27.669"/><path fill="#FAAC28" d="M486.3 54.118c-9.574-4.223-17.627-6.22-24.134-6.54-1.79 13.502-11.94 33.018-16.707 59.727-7.772 43.576 15.11 101.013-42.644 171.733-206.623 253.05-335.59 133.864-384.293 126.34-1.98-.308-3.732-.628-5.535-.948.192 1.83.563 3.558 1.228 4.966 0 0-7.709 11.76 40.752 19.248 48.46 7.499 176.762 126.07 382.323-125.687 57.46-70.362 34.706-127.504 42.44-170.85 7.72-43.359 29.822-67.725 6.57-77.99"/><path fill="#454849" d="M26.84 408.011c3.055 1.715 11.032 5.055 30.078 7.986 9.383 1.446 19.724 5.746 32.814 11.185 59.914 24.892 171.445 71.22 337.66-132.329 38.784-47.492 38.247-88.086 37.787-123.894-.192-14.41-.37-28.04 1.956-41.107 2.8-15.69 7.35-29 11.006-39.686 2.748-8.024 6.89-20.143 5.56-22.741 0 0-.485-.678-2.556-1.587-14.023-6.194-21.565-5.874-23.917-5.273-.153 1.997-.217 5.606-.268 8.613-.422 24.495-1.292 75.468-43.296 86.423-18.024 4.723-40.714 28.091-69.437 57.68-51.477 53.046-121.987 125.673-234.681 163.465-.908.384-39.384 15.793-68.402 17.738-7.58.512-13 2.572-14.853 5.656-1.049 1.728-.678 3.43-.524 3.763.562 1.293.933 2.7 1.073 4.108m157 67.482c-44.51.013-79.471-14.512-103.912-24.66-11.032-4.595-20.58-8.562-26.921-9.535-29.938-4.633-45.507-11.672-50.454-22.793-1.266-2.828-1.675-5.605-1.547-8.126-2.058-7.564-.946-16.049 3.196-23.126 4.423-7.563 14.125-16.867 35.217-18.313 24.94-1.677 60.936-16.062 61.306-16.202 107.505-36.077 175.51-106.132 225.171-157.285 31.497-32.467 56.386-58.101 81.312-64.615 21.437-5.593 23.726-34.99 24.186-62.095.14-7.845.217-12.58 1.431-16.47 2.071-6.604 6.8-11.877 13.295-14.82 11.006-4.991 26.678-3.277 45.34 4.965 26.09 11.505 17.654 36.192 10.866 56.041-3.54 10.367-7.567 22.128-10.022 35.885-1.904 10.674-1.738 23.113-1.56 36.282.5 38.188 1.113 85.72-43.55 140.43C339.97 442.372 251.026 475.492 183.84 475.492"/><path fill="#FEFEFE" d="M134.16 398.55a9.58 9.58 0 0 1-9.345-7.513c-1.15-5.157 2.096-10.302 7.26-11.454.742-.166 74.985-17.328 131.498-73.177 3.746-3.699 9.83-3.686 13.55.09s3.682 9.854-.09 13.578c-60.552 59.842-137.543 77.529-140.777 78.245a10 10 0 0 1-2.097.23m168.368-117.676c4.896 4.16 5.51 11.505 1.355 16.407-4.155 4.914-11.492 5.516-16.388 1.37-4.909-4.16-5.51-11.506-1.355-16.42 4.142-4.902 11.492-5.516 16.388-1.357"/></g></svg>