<svg xmlns="http://www.w3.org/2000/svg" viewBox="0 0 24 24"><defs><radialGradient id="a" cx="35%" cy="30%" r="75%"><stop offset="0%" stop-color="#fecdd3"/><stop offset="35%" stop-color="#fb7185"/><stop offset="85%" stop-color="#e11d48"/><stop offset="100%" stop-color="#881337"/></radialGradient><radialGradient id="c" cx="30%" cy="25%" r="20%"><stop offset="0%" stop-color="#fff" stop-opacity=".9"/><stop offset="100%" stop-color="#fff" stop-opacity="0"/></radialGradient><filter id="b" width="160%" height="160%" x="-30%" y="-30%"><feGaussianBlur in="SourceAlpha" stdDeviation=".7"/><feOffset dy=".8"/><feComponentTransfer><feFuncA slope=".45" type="linear"/></feComponentTransfer><feMerge><feMergeNode/><feMergeNode in="SourceGraphic"/></feMerge></filter></defs><path fill="url(#a)" d="M12 6q-8 1-7 6 2 6 7 9 5-3 7-9 1-5-7-6" filter="url(#b)"/><g fill="#fef9c3"><circle cx="8" cy="10" r=".4"/><circle cx="12" cy="9" r=".4"/><circle cx="16" cy="10" r=".4"/><circle cx="9" cy="13" r=".4"/><circle cx="15" cy="13" r=".4"/><circle cx="11" cy="16" r=".4"/><circle cx="14" cy="17" r=".4"/><circle cx="12" cy="19" r=".4"/></g><path fill="#15803d" d="M7 6 5 4l4 2.5Zm8 0 4-2-2 2.5Zm-3.5 0 .5-3 .5 3Z"/><path fill="#4ade80" d="M9 6 8 3l3 3Zm4 0 3-3-1 3Z"/><ellipse cx="9" cy="10" fill="url(#c)" rx="2.5" ry="1.6"/></svg>