<svg xmlns="http://www.w3.org/2000/svg" viewBox="0 0 24 24"><defs><radialGradient id="a" cx="35%" cy="30%" r="75%"><stop offset="0%" stop-color="#fecaca"/><stop offset="35%" stop-color="#f87171"/><stop offset="85%" stop-color="#dc2626"/><stop offset="100%" stop-color="#7f1d1d"/></radialGradient><radialGradient id="c" cx="30%" cy="25%" r="20%"><stop offset="0%" stop-color="#fff" stop-opacity=".9"/><stop offset="100%" stop-color="#fff" stop-opacity="0"/></radialGradient><filter id="b" width="160%" height="160%" x="-30%" y="-30%"><feGaussianBlur in="SourceAlpha" stdDeviation=".7"/><feOffset dy=".8"/><feComponentTransfer><feFuncA slope=".45" type="linear"/></feComponentTransfer><feMerge><feMergeNode/><feMergeNode in="SourceGraphic"/></feMerge></filter></defs><path fill="url(#a)" d="m3 6 9 15 9-15Q12 2 3 6" filter="url(#b)"/><path fill="#86efac" d="M3 6q9-5 18 0-9-4-18 0"/><path fill="#16a34a" d="M2 6q10-6 20 0Q12 1 2 6"/><g fill="#171717"><ellipse cx="8" cy="11" rx=".45" ry=".75" transform="rotate(-25 8 11)"/><ellipse cx="14" cy="12" rx=".45" ry=".75" transform="rotate(20 14 12)"/><ellipse cx="11" cy="15" rx=".45" ry=".75" transform="rotate(15 11 15)"/><ellipse cx="13" cy="18" rx=".45" ry=".75" transform="rotate(-25 13 18)"/></g><ellipse cx="8" cy="9" fill="url(#c)" rx="2.5" ry="1.4"/></svg>